<svg width="33" height="33" viewBox="0 0 33 33" fill="none" xmlns="http://www.w3.org/2000/svg">
<path d="M9.625 22.0001C10.3813 22.0001 11 22.6188 11 23.3751C11 24.8876 9.7625 26.1251 8.25 26.1251C8.01625 26.1251 7.79625 26.0976 7.5625 26.0563C7.98875 25.3001 8.25 24.3926 8.25 23.3751C8.25 22.6188 8.86875 22.0001 9.625 22.0001ZM25.6713 4.12506C25.3138 4.12506 24.97 4.26256 24.695 4.52381L12.375 16.8438L16.1563 20.6251L28.4763 8.30506C29.0125 7.76881 29.0125 6.90256 28.4763 6.36631L26.6338 4.52381C26.3588 4.24881 26.015 4.12506 25.6713 4.12506ZM9.625 19.2501C7.3425 19.2501 5.5 21.0926 5.5 23.3751C5.5 25.1763 3.905 26.1251 2.75 26.1251C4.015 27.8026 6.17375 28.8751 8.25 28.8751C11.2888 28.8751 13.75 26.4138 13.75 23.3751C13.75 21.0926 11.9075 19.2501 9.625 19.2501Z" fill="url(#paint0_linear_5_82)"/>
<defs>
<linearGradient id="paint0_linear_5_82" x1="15.8142" y1="4.12506" x2="15.8142" y2="28.8751" gradientUnits="userSpaceOnUse">
<stop stop-color="#3CFFDC"/>
<stop offset="1" stop-color="#444BFF"/>
</linearGradient>
</defs>
</svg>
