<svg width="45" height="45" viewBox="0 0 45 45" fill="none" xmlns="http://www.w3.org/2000/svg">
<path d="M12.2625 9.375C12.375 11.0437 12.6562 12.675 13.1062 14.2313L10.8562 16.4812C10.0875 14.2312 9.6 11.85 9.43125 9.375H12.2625ZM30.75 31.9125C32.3438 32.3625 33.975 32.6437 35.625 32.7562V35.55C33.15 35.3812 30.7687 34.8937 28.5 34.1437L30.75 31.9125ZM14.0625 5.625H7.5C6.46875 5.625 5.625 6.46875 5.625 7.5C5.625 25.1063 19.8937 39.375 37.5 39.375C38.5312 39.375 39.375 38.5312 39.375 37.5V30.9563C39.375 29.925 38.5312 29.0813 37.5 29.0813C35.175 29.0813 32.9062 28.7062 30.8063 28.0125C30.6187 27.9375 30.4125 27.9188 30.225 27.9188C29.7375 27.9188 29.2687 28.1063 28.8937 28.4625L24.7687 32.5875C19.4625 29.8687 15.1125 25.5375 12.4125 20.2312L16.5375 16.1063C17.0625 15.5813 17.2125 14.85 17.0062 14.1938C16.3125 12.0938 15.9375 9.84375 15.9375 7.5C15.9375 6.46875 15.0938 5.625 14.0625 5.625Z" fill="white"/>
</svg>
