<svg width="43" height="43" viewBox="0 0 43 43" fill="none" xmlns="http://www.w3.org/2000/svg">
<path d="M21.5 3.58337C11.61 3.58337 3.58334 11.61 3.58334 21.5C3.58334 31.39 11.61 39.4167 21.5 39.4167C31.39 39.4167 39.4167 31.39 39.4167 21.5C39.4167 11.61 31.39 3.58337 21.5 3.58337ZM21.5 35.8334C13.5988 35.8334 7.16667 29.4013 7.16667 21.5C7.16667 13.5988 13.5988 7.16671 21.5 7.16671C29.4013 7.16671 35.8333 13.5988 35.8333 21.5C35.8333 29.4013 29.4013 35.8334 21.5 35.8334ZM23.0946 19.8875C19.9054 18.8305 18.3646 18.1675 18.3646 16.4834C18.3646 14.6559 20.3533 13.993 21.6075 13.993C23.9546 13.993 24.8146 15.7667 25.0117 16.3938L27.8425 15.1934C27.5738 14.405 26.3733 11.7713 23.0767 11.198V8.95837H19.9413V11.2159C15.2829 12.2192 15.2471 16.3221 15.2471 16.5192C15.2471 20.5863 19.2783 21.733 21.2492 22.4496C24.08 23.453 25.3342 24.3667 25.3342 26.0867C25.3342 28.1113 23.4529 28.9713 21.7867 28.9713C18.5258 28.9713 17.5942 25.6209 17.4867 25.2267L14.5125 26.4271C15.6413 30.3509 18.5975 31.408 19.9233 31.7305V34.0417H23.0588V31.82C23.9904 31.6588 28.4696 30.763 28.4696 26.0509C28.4875 23.5605 27.3946 21.3746 23.0946 19.8875Z" fill="white"/>
</svg>
