<svg width="34" height="34" viewBox="0 0 34 34" fill="none" xmlns="http://www.w3.org/2000/svg">
<g clip-path="url(#clip0_3_37)">
<path d="M22.7051 9.72731L16.1249 14.8678C14.0443 13.5365 11.2668 13.5871 9.21002 15.1939C6.60161 17.2316 6.13782 21.0075 8.17554 23.6159C10.2133 26.2243 13.9891 26.6881 16.5975 24.6504C18.6543 23.0436 19.3757 20.3609 18.5874 18.0199L18.8633 17.8045L21.6706 18.1493L22.0154 15.342L24.8227 15.6868L25.4878 10.0406L22.7051 9.72731ZM14.7507 22.2863C13.4504 23.302 11.5554 23.0693 10.5397 21.769C9.52388 20.4688 9.75663 18.5738 11.0569 17.558C12.3572 16.5422 14.2521 16.775 15.2679 18.0753C16.2837 19.3755 16.0509 21.2705 14.7507 22.2863Z" fill="#E3E3E3"/>
</g>
<defs>
<clipPath id="clip0_3_37">
<rect width="24" height="24" fill="white" transform="translate(0 14.7751) rotate(-37.9974)"/>
</clipPath>
</defs>
</svg>
