<svg width="73" height="73" viewBox="0 0 73 73" fill="none" xmlns="http://www.w3.org/2000/svg">
<g clip-path="url(#clip0_5_47)">
<path d="M48.654 20.8443L34.5536 31.8596C30.0952 29.0068 24.1433 29.1153 19.7359 32.5585C14.1464 36.925 13.1526 45.0162 17.5191 50.6057C21.8857 56.1952 29.9769 57.189 35.5663 52.8224C39.9737 49.3793 41.5195 43.6306 39.8305 38.6143L40.4215 38.1525L46.4372 38.8915L47.1762 32.8757L53.1919 33.6146L54.617 21.5156L48.654 20.8443ZM31.6087 47.7564C28.8224 49.9331 24.7618 49.4344 22.5851 46.6481C20.4084 43.8618 20.9072 39.8011 23.6935 37.6245C26.4798 35.4478 30.5404 35.9465 32.7171 38.7328C34.8938 41.5191 34.395 45.5797 31.6087 47.7564Z" fill="white"/>
</g>
<defs>
<clipPath id="clip0_5_47">
<rect width="51.4288" height="51.4288" fill="white" transform="translate(0 31.6609) rotate(-37.9974)"/>
</clipPath>
</defs>
</svg>
