<svg width="55" height="55" viewBox="0 0 55 55" fill="none" xmlns="http://www.w3.org/2000/svg">
<path d="M35.5208 2.29175H17.1875C14.025 2.29175 11.4583 4.85841 11.4583 8.02091V46.9792C11.4583 50.1417 14.025 52.7084 17.1875 52.7084H35.5208C38.6833 52.7084 41.25 50.1417 41.25 46.9792V8.02091C41.25 4.85841 38.6833 2.29175 35.5208 2.29175ZM26.3542 50.4167C24.4521 50.4167 22.9167 48.8813 22.9167 46.9792C22.9167 45.0772 24.4521 43.5417 26.3542 43.5417C28.2563 43.5417 29.7917 45.0772 29.7917 46.9792C29.7917 48.8813 28.2563 50.4167 26.3542 50.4167ZM36.6667 41.2501H16.0417V9.16675H36.6667V41.2501Z" fill="#F8F8F8"/>
</svg>
