<svg width="33" height="33" viewBox="0 0 33 33" fill="none" xmlns="http://www.w3.org/2000/svg">
<path d="M12.375 28.875H24.75C25.8913 28.875 26.8675 28.1875 27.28 27.1975L31.4325 17.5037C31.5563 17.1875 31.625 16.8575 31.625 16.5V13.75C31.625 12.2375 30.3875 11 28.875 11H20.1987L21.505 4.71625L21.5462 4.27625C21.5462 3.7125 21.3125 3.19 20.9412 2.81875L19.4837 1.375L10.4225 10.4363C9.9275 10.9313 9.625 11.6187 9.625 12.375V26.125C9.625 27.6375 10.8625 28.875 12.375 28.875ZM12.375 12.375L18.3425 6.4075L16.5 13.75H28.875V16.5L24.75 26.125H12.375V12.375ZM1.375 12.375H6.875V28.875H1.375V12.375Z" fill="url(#paint0_linear_5_192)"/>
<defs>
<linearGradient id="paint0_linear_5_192" x1="16.5" y1="1.375" x2="16.5" y2="28.875" gradientUnits="userSpaceOnUse">
<stop stop-color="#FF8642"/>
<stop offset="1" stop-color="#FF3535"/>
</linearGradient>
</defs>
</svg>
