<svg width="36" height="36" viewBox="0 0 36 36" fill="none" xmlns="http://www.w3.org/2000/svg">
<path d="M18.1716 0C8.34151 0 0.343262 7.99824 0.343262 17.8283C0.343262 27.6585 8.34151 35.6567 18.1716 35.6567C28.0017 35.6567 36 27.6585 36 17.8283C36 7.99824 28.0017 0 18.1716 0ZM33.7647 17.9621C29.9896 16.9659 26.1186 16.85 22.4304 17.61C21.9267 16.3531 21.3829 15.1162 20.7991 13.895C24.1352 12.335 27.2195 10.2201 29.9249 7.60602C32.3117 10.3449 33.7714 13.915 33.7714 17.8283C33.7714 17.8729 33.7647 17.9153 33.7647 17.9621ZM28.3494 6.03267C25.8222 8.47292 22.9474 10.4608 19.8319 11.9138C18.1672 8.72698 16.2194 5.68279 14.0154 2.80796C15.3414 2.44026 16.7297 2.22854 18.1716 2.22854C22.0604 2.22854 25.6149 3.66818 28.3494 6.03267ZM11.8136 3.59687C14.0755 6.47615 16.0612 9.54262 17.7526 12.754C13.0727 14.5412 7.99162 15.2276 2.90386 14.6326C3.93567 9.69416 7.31415 5.61593 11.8136 3.59687ZM2.57181 17.8283C2.57181 17.4941 2.60078 17.1665 2.62306 16.8389C3.94236 16.9949 5.26166 17.0974 6.5765 17.0974C10.7706 17.0974 14.8912 16.2773 18.7533 14.773C19.2881 15.8873 19.7918 17.0172 20.2575 18.1626C14.7798 19.8073 9.89926 23.315 6.61438 28.2691C4.11173 25.5012 2.57181 21.8442 2.57181 17.8283ZM8.24345 29.8513C11.2654 25.1001 15.874 21.7506 21.0598 20.2352C22.4682 24.1128 23.4822 28.1398 24.0728 32.2604C22.2521 33.0092 20.2598 33.4282 18.1716 33.4282C14.4031 33.4282 10.9422 32.0843 8.24345 29.8513ZM26.1632 31.1996C25.5503 27.2729 24.5787 23.4287 23.2482 19.7182C26.6156 19.0852 30.1389 19.2346 33.5708 20.204C32.851 24.875 30.0631 28.8596 26.1632 31.1996Z" fill="#C2185B"/>
</svg>
