<svg width="36" height="36" viewBox="0 0 36 36" fill="none" xmlns="http://www.w3.org/2000/svg">
<g clip-path="url(#clip0_1_421)">
<path d="M24.5139 0H11.1426C4.98959 0 -0.00012207 4.98971 -0.00012207 11.1427V24.514C-0.00012207 30.667 4.98959 35.6567 11.1426 35.6567H24.5139C30.6669 35.6567 35.6566 30.667 35.6566 24.514V11.1427C35.6566 4.98971 30.6669 0 24.5139 0ZM32.3138 24.514C32.3138 28.8151 28.8149 32.3139 24.5139 32.3139H11.1426C6.84151 32.3139 3.34269 28.8151 3.34269 24.514V11.1427C3.34269 6.84163 6.84151 3.34282 11.1426 3.34282H24.5139C28.8149 3.34282 32.3138 6.84163 32.3138 11.1427V24.514Z" fill="url(#paint0_linear_1_421)"/>
<path d="M17.8282 8.91431C12.9054 8.91431 8.91406 12.9056 8.91406 17.8285C8.91406 22.7513 12.9054 26.7427 17.8282 26.7427C22.7511 26.7427 26.7424 22.7513 26.7424 17.8285C26.7424 12.9056 22.7511 8.91431 17.8282 8.91431ZM17.8282 23.3998C14.7573 23.3998 12.2569 20.8994 12.2569 17.8285C12.2569 14.7553 14.7573 12.2571 17.8282 12.2571C20.8992 12.2571 23.3996 14.7553 23.3996 17.8285C23.3996 20.8994 20.8992 23.3998 17.8282 23.3998Z" fill="url(#paint1_linear_1_421)"/>
<path d="M27.4111 9.43349C28.0671 9.43349 28.5989 8.90169 28.5989 8.24567C28.5989 7.58966 28.0671 7.05786 27.4111 7.05786C26.7551 7.05786 26.2233 7.58966 26.2233 8.24567C26.2233 8.90169 26.7551 9.43349 27.4111 9.43349Z" fill="url(#paint2_linear_1_421)"/>
</g>
<defs>
<linearGradient id="paint0_linear_1_421" x1="3.26391" y1="32.3929" x2="32.3925" y2="3.26381" gradientUnits="userSpaceOnUse">
<stop stop-color="#FFC107"/>
<stop offset="0.507" stop-color="#F44336"/>
<stop offset="0.99" stop-color="#9C27B0"/>
</linearGradient>
<linearGradient id="paint1_linear_1_421" x1="11.5251" y1="24.1316" x2="24.1313" y2="11.5254" gradientUnits="userSpaceOnUse">
<stop stop-color="#FFC107"/>
<stop offset="0.507" stop-color="#F44336"/>
<stop offset="0.99" stop-color="#9C27B0"/>
</linearGradient>
<linearGradient id="paint2_linear_1_421" x1="26.5713" y1="9.08572" x2="28.2509" y2="7.40585" gradientUnits="userSpaceOnUse">
<stop stop-color="#FFC107"/>
<stop offset="0.507" stop-color="#F44336"/>
<stop offset="0.99" stop-color="#9C27B0"/>
</linearGradient>
<clipPath id="clip0_1_421">
<rect width="35.6567" height="35.6567" fill="white"/>
</clipPath>
</defs>
</svg>
