<svg width="32" height="32" viewBox="0 0 32 32" fill="none" xmlns="http://www.w3.org/2000/svg">
<path d="M30.6312 19.128H28.5796V2.72805C28.5734 1.66241 27.7093 0.801487 26.6437 0.799927H5.35612C4.2858 0.801489 3.4202 1.67025 3.4202 2.74057V19.1406H1.36864C0.926442 19.1406 0.568642 19.4984 0.568642 19.9406V29.2594C0.568642 30.3297 1.43428 31.1984 2.50456 31.2H29.4954C30.5657 31.1984 31.4313 30.3297 31.4313 29.2594V19.9282C31.4313 19.7157 31.3485 19.5125 31.1985 19.3625C31.0485 19.2125 30.8438 19.1281 30.6313 19.1281L30.6312 19.128ZM5.0312 2.72805C5.0312 2.54211 5.1812 2.39055 5.3687 2.38742H26.6439C26.8298 2.39055 26.9798 2.54211 26.9798 2.72805V19.128H24.5798C24.1845 19.1234 23.8439 19.4093 23.7798 19.7999L23.3439 22.4921H8.66432L8.2284 19.7999C8.16433 19.4093 7.82528 19.1234 7.4284 19.128H5.0284L5.0312 2.72805ZM29.8312 29.2484C29.8312 29.4344 29.6828 29.5859 29.4953 29.5875H2.50447C2.31697 29.5859 2.16853 29.4344 2.16853 29.2484V20.728H6.75613L7.19989 23.4202C7.26395 23.8109 7.60301 24.0968 7.99989 24.0921H24.0407C24.436 24.0968 24.7766 23.8109 24.8407 23.4202L25.2766 20.728H29.8314L29.8312 29.2484Z" fill="#4F46BA"/>
<path d="M18.0564 25.8593H13.944C13.5018 25.8593 13.144 26.2186 13.144 26.6593C13.144 27.1015 13.5018 27.4593 13.944 27.4593H18.0564C18.4986 27.4593 18.8564 27.1014 18.8564 26.6593C18.8564 26.2186 18.4986 25.8593 18.0564 25.8593Z" fill="#4F46BA"/>
<path d="M13.1564 11.092L15.2002 8.65924V18.4312C15.2002 18.8734 15.558 19.2312 16.0002 19.2312C16.4423 19.2312 16.8002 18.8734 16.8002 18.4312V8.65924L18.8439 11.0905V11.092C18.997 11.2717 19.2205 11.3764 19.4564 11.3764C19.6423 11.378 19.8236 11.3155 19.9689 11.1999C20.3048 10.917 20.3501 10.4139 20.0689 10.0764L16.6126 5.94841C16.4548 5.77654 16.233 5.6781 16.0002 5.6781C15.7674 5.6781 15.5455 5.77654 15.3877 5.94841L11.9314 10.064C11.6721 10.4031 11.7252 10.8875 12.0518 11.164C12.3799 11.439 12.8674 11.4078 13.1564 11.0921L13.1564 11.092Z" fill="#4F46BA"/>
</svg>
