<svg width="32" height="32" viewBox="0 0 32 32" fill="none" xmlns="http://www.w3.org/2000/svg">
<path d="M31.3188 6.10325L25.8968 0.681248C25.7859 0.568748 25.6374 0.507812 25.4796 0.507812C25.3233 0.507812 25.1734 0.568748 25.0624 0.681248L16.4108 9.33125L17.2467 10.1656L25.4795 1.93281L30.0655 6.52041L28.6312 7.95477L26.0327 5.35477C25.8015 5.12508 25.4296 5.12508 25.1984 5.35477C24.9671 5.58758 24.9671 5.95945 25.1984 6.18913L27.7968 8.78913L26.153 10.4329L24.5124 8.79225C24.2812 8.55944 23.9093 8.55944 23.678 8.79225C23.4468 9.02194 23.4468 9.39537 23.678 9.62661L25.3187 11.2672L23.6749 12.911L21.0749 10.311C20.8437 10.0798 20.4718 10.0798 20.2406 10.311C20.0093 10.5423 20.0093 10.9141 20.2406 11.1454L22.8406 13.7454L21.8374 14.7485L22.6718 15.5829L31.3234 6.93285C31.5484 6.70785 31.5484 6.33441 31.3187 6.10317L31.3188 6.10325Z" fill="#4F46BA"/>
<path d="M13.7516 22.8344L11.1532 20.236C10.9219 20.0047 10.55 20.0047 10.3188 20.236C10.0876 20.4672 10.0876 20.8391 10.3188 21.0703L12.9172 23.6688L11.2735 25.3141L9.63284 23.6734C9.4016 23.4422 9.02816 23.4422 8.79692 23.6734C8.56567 23.9047 8.56567 24.2766 8.79692 24.5078L10.4376 26.1484L8.7938 27.7906L6.19536 25.1938C5.96412 24.9609 5.59068 24.9609 5.35944 25.1938C5.12819 25.4234 5.12819 25.7969 5.35944 26.0281L7.95788 28.6266L6.52352 30.0625L1.93752 25.4733L10.1687 17.2421L9.33436 16.4077L0.684364 25.0561C0.453112 25.2874 0.453112 25.6592 0.684364 25.8905L6.10636 31.3141C6.2173 31.4235 6.36574 31.4875 6.52356 31.4875C6.67981 31.4875 6.82981 31.4234 6.94076 31.3141L15.5908 22.6641L14.7548 21.8297L13.7516 22.8344Z" fill="#4F46BA"/>
<path d="M28.6752 23.2657L9.116 3.70649L7.80976 2.39712C6.88476 1.469 5.30196 1.41276 4.44568 2.27212L2.27224 4.44712C1.3816 5.33776 1.43944 6.84713 2.3988 7.80805L23.266 28.6769C23.5379 28.9456 23.991 29.3925 28.9708 30.5206C29.0739 30.5425 29.177 30.555 29.2802 30.555C29.6271 30.555 29.9505 30.4237 30.1895 30.1831C30.4958 29.8737 30.6192 29.4222 30.5208 28.9738C29.3927 23.9846 28.9427 23.5345 28.6755 23.2657L28.6752 23.2657ZM3.2344 6.97209C2.73284 6.47209 2.67504 5.71273 3.10627 5.27988L5.27815 3.108C5.46409 2.9205 5.72503 2.81738 6.00939 2.81738C6.35627 2.81738 6.70783 2.96894 6.97187 3.23302L7.86251 4.12366L4.12343 7.86274L3.2344 6.97209ZM23.1156 25.3253C22.9093 25.2612 22.6844 25.3159 22.5312 25.4659C22.3781 25.6175 22.3172 25.8393 22.375 26.0472L22.4015 26.1425L4.95955 8.69726L8.70019 4.95818L26.0298 22.291C25.8267 22.2379 25.6126 22.291 25.4641 22.4363C25.311 22.5879 25.2516 22.8097 25.3095 23.0144L25.6173 24.1238L24.5829 23.8082C24.3767 23.7441 24.1517 23.8003 23.9986 23.9519C23.8439 24.1003 23.7845 24.3253 23.8423 24.5331L24.1501 25.6394L23.1156 25.3253ZM24.1 27.8409L23.8031 26.769L24.8312 27.0847C25.0406 27.1456 25.2718 27.0878 25.425 26.9331C25.575 26.7815 25.6343 26.5612 25.575 26.3565L25.2687 25.2534L26.3 25.5675C26.5046 25.6316 26.7296 25.5753 26.8843 25.4237C27.0374 25.2753 27.0984 25.0519 27.0406 24.8456L26.7296 23.7253L27.764 24.0284L27.8421 24.105C27.9265 24.1894 28.0765 24.4519 28.3077 25.1519L25.1546 28.3081C24.4484 28.0722 24.1874 27.9253 24.0999 27.8409L24.1 27.8409ZM29.3516 29.3534C29.3375 29.3659 29.3125 29.3753 29.2828 29.3753L29.2359 29.3675C28.0547 29.1018 27.1484 28.8753 26.4406 28.6847L28.6875 26.4378C28.8781 27.144 29.1031 28.0503 29.3718 29.23C29.3797 29.2831 29.3718 29.3316 29.3515 29.3534L29.3516 29.3534Z" fill="#4F46BA"/>
</svg>
