<svg width="15" height="13" viewBox="0 0 15 13" fill="none" xmlns="http://www.w3.org/2000/svg">
<path d="M6.08558 1.43824C6.4136 0.581797 7.62526 0.581797 7.95328 1.43824L9.02292 4.23102C9.17109 4.6179 9.54248 4.87336 9.95677 4.87336L13.0202 4.87336C14.0282 4.87336 14.403 6.19577 13.5449 6.72464L11.3648 8.06838C10.9556 8.32063 10.7837 8.82839 10.9557 9.27733L11.8519 11.6173C12.1939 12.5104 11.2075 13.3281 10.3933 12.8263L7.54413 11.0701C7.22243 10.8718 6.81643 10.8718 6.49473 11.0701L3.64554 12.8263C2.83139 13.3281 1.84492 12.5104 2.18699 11.6173L3.0832 9.27733C3.25515 8.82839 3.0833 8.32063 2.67405 8.06838L0.493947 6.72464C-0.364109 6.19577 0.0106978 4.87336 1.01865 4.87336L4.08209 4.87336C4.49638 4.87336 4.86777 4.6179 5.01594 4.23102L6.08558 1.43824Z" fill="#F9896B"/>
</svg>
