<svg width="36" height="30" viewBox="0 0 36 30" fill="none" xmlns="http://www.w3.org/2000/svg">
<path d="M35.6565 3.7725C34.3305 4.35415 32.9176 4.73969 31.4445 4.92689C32.9599 4.0221 34.1165 2.60029 34.6603 0.886538C33.2474 1.72893 31.6874 2.32395 30.0249 2.656C28.6833 1.22751 26.7712 0.342773 24.6853 0.342773C20.6383 0.342773 17.3802 3.62765 17.3802 7.65462C17.3802 8.23405 17.4292 8.79118 17.5495 9.32157C11.4723 9.02518 6.09482 6.11247 2.48235 1.67544C1.85168 2.76966 1.48174 4.0221 1.48174 5.37037C1.48174 7.90199 2.78544 10.1461 4.72872 11.4454C3.55428 11.4231 2.40213 11.0821 1.42602 10.545C1.42602 10.5673 1.42602 10.5963 1.42602 10.6253C1.42602 14.1776 3.95988 17.1282 7.28264 17.8079C6.68761 17.9706 6.03911 18.0485 5.36609 18.0485C4.89809 18.0485 4.42564 18.0218 3.98216 17.9238C4.92929 20.8186 7.61692 22.9469 10.8126 23.016C8.32559 24.9615 5.16775 26.1337 1.74916 26.1337C1.14968 26.1337 0.57472 26.107 -0.000244141 26.0334C3.23783 28.1216 7.07538 29.3138 11.2138 29.3138C24.6653 29.3138 32.0195 18.1711 32.0195 8.51261C32.0195 8.18947 32.0083 7.87748 31.9927 7.56771C33.4435 6.53812 34.6625 5.25225 35.6565 3.7725Z" fill="#03A9F4"/>
</svg>
